<?xml version="1.0" encoding="UTF-8"?>
<svg width="584px" height="379px" viewBox="0 0 584 379" version="1.1" xmlns="http://www.w3.org/2000/svg" xmlns:xlink="http://www.w3.org/1999/xlink">
    <!-- Generator: Sketch 58 (84663) - https://sketch.com -->
    <title>header-image</title>
    <desc>Created with Sketch.</desc>
    <g id="header-image" stroke="none" stroke-width="1" fill="none" fill-rule="evenodd">
        <g>
            <rect opacity="0.0248093378" x="0" y="0" width="584" height="379"></rect>
            <g id="browser" transform="translate(51.000000, 21.000000)">
                <path d="M2.5,2.5 L2.5,25.5 L359.5,25.5 L359.5,2.5 L2.5,2.5 Z" id="path" stroke="#FFFFFF" stroke-width="5" fill-opacity="0.15" fill="#FFFFFF"></path>
                <circle id="path" fill="#FFFFFF" cx="15" cy="14" r="3"></circle>
                <circle id="path" fill="#FFFFFF" cx="27" cy="14" r="3"></circle>
                <circle id="path" fill="#FFFFFF" cx="39" cy="14" r="3"></circle>
                <path d="M2.5,25.5 L2.5,304.5 L359.5,304.5 L359.5,25.5 L2.5,25.5 Z" id="background" stroke="#FFFFFF" stroke-width="5"></path>
                <g id="item" transform="translate(244.000000, 195.000000)" fill="#FFFFFF">
                    <rect id="path" stroke="#FFFFFF" stroke-width="5" fill-opacity="0.16" x="25.5" y="2.5" width="35" height="35"></rect>
                    <rect id="path" x="0" y="50" width="86" height="5"></rect>
                    <rect id="path" x="0" y="62" width="86" height="5"></rect>
                    <rect id="path" x="13" y="74" width="60" height="5"></rect>
                </g>
                <g id="item" transform="translate(138.000000, 195.000000)" fill="#FFFFFF">
                    <rect id="path" stroke="#FFFFFF" stroke-width="5" fill-opacity="0.15" x="25.5" y="2.5" width="35" height="35"></rect>
                    <rect id="path" x="0" y="50" width="86" height="5"></rect>
                    <rect id="path" opacity="0.7" x="0" y="62" width="86" height="5"></rect>
                    <rect id="path" opacity="0.4" x="13" y="74" width="60" height="5"></rect>
                </g>
                <g id="item" transform="translate(32.000000, 195.000000)" fill="#FFFFFF">
                    <rect id="path" stroke="#FFFFFF" stroke-width="5" fill-opacity="0.15" x="25.5" y="2.5" width="35" height="35"></rect>
                    <rect id="path" x="0" y="50" width="86" height="5"></rect>
                    <rect id="path" opacity="0.702776228" x="0" y="62" width="86" height="5"></rect>
                    <rect id="path" opacity="0.4" x="13" y="74" width="60" height="5"></rect>
                </g>
                <g id="header" transform="translate(0.000000, 23.000000)">
                    <rect id="background" stroke="#FFFFFF" stroke-width="5" x="2.5" y="2.5" width="357" height="137"></rect>
                    <g id="text" transform="translate(32.000000, 29.000000)" fill="#FFFFFF">
                        <rect id="path" x="0" y="23" width="130" height="5"></rect>
                        <rect id="path" x="0" y="9" width="130" height="5"></rect>
                        <rect id="image" stroke="#FFFFFF" stroke-width="5" fill-opacity="0.15" x="170.5" y="2.5" width="125" height="79"></rect>
                        <rect id="path" x="0" y="37" width="130" height="5"></rect>
                        <rect id="path" x="0" y="51" width="130" height="5"></rect>
                        <rect id="path" x="0" y="65" width="90" height="5"></rect>
                    </g>
                </g>
            </g>
            <g id="browser-doc" transform="translate(288.000000, 132.000000)">
                <path d="M2,18 L251,18 L251,2 L2,2 L2,18 Z" id="path" stroke="#FFFFFF" stroke-width="4" fill="#003C72"></path>
                <path d="M2,18 L251,18 L251,2 L2,2 L2,18 Z" id="path" stroke="#FFFFFF" stroke-width="4" fill="#003C72"></path>
                <circle id="path" fill="#FFFFFF" cx="11" cy="10" r="2"></circle>
                <circle id="path" fill="#FFFFFF" cx="19" cy="10" r="2"></circle>
                <circle id="path" fill="#FFFFFF" cx="27" cy="10" r="2"></circle>
                <path d="M2,18 L2,207 C2,207.552285 2.44771525,208 3,208 L250,208 C250.552285,208 251,207.552285 251,207 L251,18 L2,18 Z" id="path" stroke="#FFFFFF" stroke-width="4" fill="#003C72"></path>
                <path d="M2,18 L2,208 L78,208 L78,18 L2,18 Z" id="path" stroke="#FFFFFF" stroke-width="4"></path>
                <rect id="path" stroke="#FFFFFF" stroke-width="4" fill="#003C72" x="2" y="18" width="76" height="28"></rect>
                <rect id="path" fill="#FFFFFF" x="12" y="27" width="11" height="11"></rect>
                <rect id="path" fill="#FFFFFF" x="28" y="30" width="39" height="4"></rect>
                <rect id="path" fill="#FFFFFF" opacity="0.3" x="11" y="65" width="58" height="4"></rect>
                <rect id="path" fill="#FFFFFF" opacity="0.3" x="11" y="56" width="58" height="4"></rect>
                <rect id="path" fill="#FFFFFF" x="11" y="74" width="58" height="4"></rect>
                <g id="code" transform="translate(92.000000, 32.000000)" fill="#FFFFFF">
                    <rect id="path" opacity="0.7" x="0" y="64" width="80" height="4"></rect>
                    <rect id="path" opacity="0.4" x="0" y="154" width="80" height="4"></rect>
                    <rect id="path" x="0" y="100" width="73" height="4"></rect>
                    <rect id="path" opacity="0.4" x="0" y="136" width="45" height="4"></rect>
                    <rect id="path" opacity="0.7" x="0" y="109" width="62" height="4"></rect>
                    <rect id="path" opacity="0.7" x="0" y="145" width="107" height="4"></rect>
                    <rect id="path" opacity="0.4" x="0" y="73" width="40" height="4"></rect>
                    <rect id="path" opacity="0.4" x="0" y="118" width="128" height="4"></rect>
                    <rect id="path" opacity="0.7" x="0" y="127" width="77" height="4"></rect>
                    <rect id="path" opacity="0.7" x="0" y="91" width="114" height="4"></rect>
                    <rect id="path" x="0" y="82" width="27" height="4"></rect>
                    <rect id="path" opacity="0.7" x="0" y="0" width="124" height="4"></rect>
                    <rect id="path" opacity="0.7" x="0" y="45" width="80" height="4"></rect>
                    <rect id="path" x="0" y="36" width="45" height="4"></rect>
                    <rect id="path" opacity="0.4" x="0" y="54" width="98" height="4"></rect>
                    <rect id="path" opacity="0.4" x="0" y="9" width="57" height="4"></rect>
                    <rect id="path" opacity="0.4" x="0" y="27" width="114" height="4"></rect>
                    <rect id="path" x="0" y="18" width="27" height="4"></rect>
                </g>
                <rect id="path" fill="#FFFFFF" opacity="0.3" x="11" y="83" width="58" height="4"></rect>
                <rect id="path" fill="#FFFFFF" opacity="0.3" x="11" y="92" width="58" height="4"></rect>
                <rect id="path" fill="#FFFFFF" opacity="0.3" x="11" y="101" width="58" height="4"></rect>
                <rect id="path" fill="#FFFFFF" opacity="0.3" x="11" y="110" width="58" height="4"></rect>
                <rect id="path" fill="#FFFFFF" opacity="0.3" x="11" y="119" width="58" height="4"></rect>
                <rect id="path" fill="#FFFFFF" opacity="0.3" x="11" y="128" width="58" height="4"></rect>
                <rect id="path" fill="#FFFFFF" opacity="0.3" x="11" y="137" width="58" height="4"></rect>
                <rect id="path" fill="#FFFFFF" opacity="0.3" x="11" y="146" width="58" height="4"></rect>
            </g>
        </g>
    </g>
</svg>