<?xml version="1.0" encoding="UTF-8"?>
<svg width="34px" height="32px" viewBox="0 0 34 32" version="1.1" xmlns="http://www.w3.org/2000/svg" xmlns:xlink="http://www.w3.org/1999/xlink">
    <!-- Generator: Sketch 58 (84663) - https://sketch.com -->
    <title>navbar-brand</title>
    <desc>Created with Sketch.</desc>
    <g id="navbar-brand" stroke="none" stroke-width="1" fill="none" fill-rule="evenodd">
        <g id="icon">
            <rect id="bound" opacity="0.352120536" x="0" y="0" width="32" height="32"></rect>
            <path d="M2,1 L32,1 C32.5522847,1 33,1.44771525 33,2 L33,9 L33,9 L1,9 L1,2 C1,1.44771525 1.44771525,1 2,1 Z" id="path" stroke="#003C72" stroke-width="2"></path>
            <path d="M1,9 L33,9 L33,30 C33,30.5522847 32.5522847,31 32,31 L2,31 C1.44771525,31 1,30.5522847 1,30 L1,9 L1,9 Z" id="path" stroke="#003C72" stroke-width="2"></path>
            <rect id="path" fill="#003C72" x="9" y="2" width="2" height="6"></rect>
            <rect id="path" fill="#003C72" opacity="0.134161086" x="6" y="14" width="22" height="12"></rect>
            <g id="square" transform="translate(5.000000, 13.000000)" fill="#003C72">
                <rect id="path" x="0" y="1" width="1" height="3"></rect>
                <rect id="path" x="23" y="1" width="1" height="3"></rect>
                <rect id="path" x="23" y="5" width="1" height="4"></rect>
                <rect id="path" x="0" y="5" width="1" height="4"></rect>
                <rect id="path" x="0" y="10" width="1" height="4"></rect>
                <rect id="path" x="23" y="10" width="1" height="4"></rect>
                <rect id="path" x="0" y="0" width="4" height="1"></rect>
                <rect id="path" x="5" y="0" width="4" height="1"></rect>
                <rect id="path" x="5" y="13" width="4" height="1"></rect>
                <rect id="path" x="10" y="0" width="4" height="1"></rect>
                <rect id="path" x="10" y="13" width="4" height="1"></rect>
                <rect id="path" x="15" y="0" width="4" height="1"></rect>
                <rect id="path" x="15" y="13" width="4" height="1"></rect>
                <rect id="path" x="20" y="0" width="4" height="1"></rect>
                <rect id="path" x="0" y="13" width="4" height="1"></rect>
                <rect id="path" x="20" y="13" width="4" height="1"></rect>
            </g>
        </g>
    </g>
</svg>